<svg xmlns="http://www.w3.org/2000/svg" width="1024" height="500" viewBox="0 0 1024 500">
  <defs><linearGradient id="bg" x1="0" x2="1" y1="0" y2="1"><stop stop-color="#F5FFF8"/><stop offset="1" stop-color="#DCE8FF"/></linearGradient></defs>
  <rect width="1024" height="500" fill="url(#bg)"/>
  <circle cx="903" cy="80" r="154" fill="#C8F7D7" opacity=".72"/><circle cx="88" cy="480" r="190" fill="#DCE8FF" opacity=".8"/>
  <g transform="translate(68 103)"><path d="M12 5C-5 5-18 18-18 35v104c0 17 13 30 30 30h31l-14 35 58-35h78c17 0 30-13 30-30V35C195 18 182 5 165 5z" fill="#D5F5DF"/><path d="M177 21c0-10 8-18 18-18h22c8 0 15 7 15 15s-7 15-15 15h-22c-10 0-18-8-18-12zm12 39c0-8 7-15 15-15h25c8 0 15 7 15 15s-7 15-15 15h-25c-8 0-15-7-15-15z" fill="#2563EB"/><path d="M46 92L35 37l33 19c15-9 32-14 47-14s32 5 47 14l33-19-11 55v52c0 42-34 70-69 70s-69-28-69-70z" fill="#007A3D"/><path d="M46 119L10 92l8 54c4 22 19 37 44 45v-49zm138 0l36-27-8 54c-4 22-19 37-44 45v-49z" fill="#149B50"/><circle cx="82" cy="105" r="33" fill="#fff"/><circle cx="148" cy="105" r="33" fill="#fff"/><circle cx="82" cy="105" r="12" fill="#102A43"/><circle cx="148" cy="105" r="12" fill="#102A43"/><path d="m115 125-17 17 17 17 17-17z" fill="#F59E0B"/><path d="M61 166c18-9 36-5 54 9 18-14 36-18 54-9v33c-18-7-36-4-54 8-18-12-36-15-54-8z" fill="#fff"/><path d="M112 175h6v31h-6z" fill="#2563EB"/></g>
  <text x="292" y="174" fill="#0D2B1B" font-family="Arial, sans-serif" font-size="64" font-weight="700">VaaniVerse4U</text>
  <text x="296" y="229" fill="#007A3D" font-family="Arial, sans-serif" font-size="31" font-weight="700">Learn local. Go global.</text>
  <text x="296" y="290" fill="#354038" font-family="Arial, sans-serif" font-size="26">Build a daily language habit with</text>
  <text x="296" y="327" fill="#354038" font-family="Arial, sans-serif" font-size="26">short, offline-first Indian language lessons.</text>
  <g transform="translate(296 366)"><rect width="150" height="55" rx="27" fill="#007A3D"/><text x="75" y="35" text-anchor="middle" fill="#fff" font-family="Arial, sans-serif" font-size="21" font-weight="700">LEARN</text><rect x="166" width="150" height="55" rx="27" fill="#2563EB"/><text x="241" y="35" text-anchor="middle" fill="#fff" font-family="Arial, sans-serif" font-size="21" font-weight="700">PRACTISE</text><rect x="332" width="130" height="55" rx="27" fill="#B45309"/><text x="397" y="35" text-anchor="middle" fill="#fff" font-family="Arial, sans-serif" font-size="21" font-weight="700">GROW</text></g>
</svg>
