<svg xmlns="http://www.w3.org/2000/svg" width="1080" height="1920" viewBox="0 0 1080 1920">
 <rect width="1080" height="1920" fill="#F8FAFC"/><rect x="0" y="0" width="1080" height="90" fill="#F8FAFC"/>
 <text x="72" y="176" fill="#111411" font-family="Arial, sans-serif" font-size="50" font-weight="700">Good morning</text><text x="72" y="226" fill="#354038" font-family="Arial, sans-serif" font-size="30">Ready to continue learning?</text>
 <circle cx="952" cy="174" r="48" fill="#C8F7D7"/><path d="M952 147a20 20 0 1 1 0 40 20 20 0 1 1 0-40m-35 70c4-30 66-30 70 0" fill="#007A3D"/>
 <rect x="58" y="292" width="964" height="385" rx="46" fill="#C8F7D7"/><text x="106" y="358" fill="#003919" font-family="Arial, sans-serif" font-size="24" font-weight="700">CURRENT COURSE</text><text x="106" y="423" fill="#003919" font-family="Arial, sans-serif" font-size="43" font-weight="700">English to Hindi: First Steps</text><text x="106" y="519" fill="#003919" font-family="Arial, sans-serif" font-size="30">Course progress</text><text x="860" y="519" fill="#003919" font-family="Arial, sans-serif" font-size="30" font-weight="700">2 of 6</text><rect x="106" y="555" width="868" height="18" rx="9" fill="#fff"/><rect x="106" y="555" width="290" height="18" rx="9" fill="#007A3D"/><text x="106" y="630" fill="#003919" font-family="Arial, sans-serif" font-size="28">Keep going, you’re making great progress!</text>
 <g transform="translate(58 730)"><rect width="300" height="170" rx="32" fill="#fff"/><text x="30" y="55" fill="#007A3D" font-family="Arial" font-size="28" font-weight="700">STREAK</text><text x="30" y="117" fill="#111411" font-family="Arial" font-size="42" font-weight="700">5 days</text><rect x="332" width="300" height="170" rx="32" fill="#fff"/><text x="362" y="55" fill="#007A3D" font-family="Arial" font-size="28" font-weight="700">LESSONS</text><text x="362" y="117" fill="#111411" font-family="Arial" font-size="42" font-weight="700">2 / 6</text><rect x="664" width="300" height="170" rx="32" fill="#fff"/><text x="694" y="55" fill="#007A3D" font-family="Arial" font-size="28" font-weight="700">XP</text><text x="694" y="117" fill="#111411" font-family="Arial" font-size="42" font-weight="700">120</text></g>
 <text x="58" y="1000" fill="#111411" font-family="Arial" font-size="42" font-weight="700">Keep learning</text><text x="58" y="1040" fill="#354038" font-family="Arial" font-size="26">Continue where you left off</text><rect x="58" y="1082" width="964" height="178" rx="32" fill="#fff"/><rect x="90" y="1120" width="102" height="102" rx="28" fill="#007A3D"/><text x="238" y="1151" fill="#111411" font-family="Arial" font-size="36" font-weight="700">Continue your lesson</text><text x="238" y="1200" fill="#354038" font-family="Arial" font-size="26">Pick up where you left off</text>
 <text x="58" y="1354" fill="#111411" font-family="Arial" font-size="42" font-weight="700">Explore</text><rect x="58" y="1400" width="462" height="232" rx="32" fill="#fff"/><text x="88" y="1484" fill="#174EA6" font-family="Arial" font-size="32" font-weight="700">Daily Challenge</text><text x="88" y="1531" fill="#354038" font-family="Arial" font-size="26">Practice every day</text><rect x="560" y="1400" width="462" height="232" rx="32" fill="#fff"/><text x="590" y="1484" fill="#174EA6" font-family="Arial" font-size="32" font-weight="700">Learning Path</text><text x="590" y="1531" fill="#354038" font-family="Arial" font-size="26">Track your journey</text>
 <rect y="1746" width="1080" height="174" fill="#fff"/><text x="135" y="1852" fill="#007A3D" font-family="Arial" font-size="26" font-weight="700">HOME</text><text x="365" y="1852" fill="#354038" font-family="Arial" font-size="26">LEARN</text><text x="594" y="1852" fill="#354038" font-family="Arial" font-size="26">PRACTISE</text><text x="844" y="1852" fill="#354038" font-family="Arial" font-size="26">PROFILE</text>
</svg>
